<svg xmlns="http://www.w3.org/2000/svg" version="1.0" width="417.000000" height="188.000000" preserveAspectRatio="xMidYMid meet" style=""><rect id="backgroundrect" width="100%" height="100%" x="0" y="0" fill="none" stroke="none"/>


<g class="currentLayer" style=""><title>Layer 1</title><g transform="translate(0,188) scale(0.10000000149011612,-0.10000000149011612) " fill="#ffffff" stroke="#ffffff" id="svg_1" class="selected" stroke-opacity="1" fill-opacity="1">
<path d="M833 1719 c-226 -38 -480 -274 -627 -582 -126 -265 -149 -504 -65 -669 32 -63 115 -145 177 -175 49 -24 68 -27 151 -28 82 0 105 4 158 27 95 40 170 94 263 187 127 128 221 281 291 470 28 76 32 102 36 221 6 155 -2 199 -50 262 -45 59 -112 91 -190 92 -122 1 -229 -62 -325 -190 -182 -243 -209 -487 -62 -562 80 -41 148 -9 196 93 27 56 30 102 10 130 -24 33 -42 12 -49 -55 -4 -35 -17 -81 -30 -104 -20 -36 -27 -41 -63 -44 -33 -2 -45 2 -67 24 -17 17 -27 38 -27 56 0 98 102 329 194 441 97 116 211 174 294 149 55 -17 107 -77 128 -149 15 -49 15 -70 6 -133 -51 -353 -332 -753 -604 -861 -123 -48 -253 -17 -322 79 -99 135 -87 344 34 629 159 376 452 654 687 653 109 -1 174 -50 224 -172 27 -67 48 -79 63 -37 14 41 -1 77 -54 133 -63 66 -128 102 -210 115 -74 12 -94 12 -167 0z" id="svg_2" stroke="#ffffff" stroke-opacity="1" fill="#ffffff" fill-opacity="1"/>
<path d="M1564 1463 c-92 -165 -346 -681 -364 -740 -29 -93 -27 -167 5 -198 31 -31 87 -33 134 -4 18 11 60 48 92 82 l59 62 0 -53 c0 -46 4 -58 29 -83 52 -52 124 -35 214 49 47 44 32 2 -34 -99 -70 -107 -155 -209 -174 -209 -7 0 -48 16 -91 36 -251 115 -349 126 -422 51 -43 -44 -51 -91 -24 -144 17 -33 33 -45 93 -73 69 -32 75 -33 168 -27 76 4 119 13 205 42 l108 38 152 -28 c267 -48 482 -50 617 -5 102 34 221 101 246 139 26 39 29 73 8 91 -12 10 -26 1 -82 -53 -86 -82 -149 -122 -238 -150 -133 -42 -461 -21 -603 39 l-35 14 64 68 c36 37 84 91 108 120 31 36 51 52 68 52 36 0 94 33 156 90 l55 50 7 -36 c13 -74 54 -105 87 -66 9 9 57 94 108 187 51 94 108 197 128 230 68 113 144 206 158 192 3 -3 -30 -81 -74 -174 -87 -183 -112 -254 -112 -320 0 -41 25 -83 49 -83 26 0 68 60 157 220 108 194 162 279 207 328 70 74 63 26 -24 -149 -88 -178 -119 -269 -119 -347 0 -75 24 -102 90 -102 35 0 53 8 98 42 41 30 54 36 49 22 -3 -10 -20 -59 -38 -109 -50 -141 -51 -281 -2 -299 24 -9 41 11 48 56 10 56 104 325 122 347 2 3 13 -5 26 -16 80 -73 171 -53 286 65 110 111 181 271 181 404 0 165 -101 207 -230 95 l-34 -30 -9 34 c-10 37 -33 69 -52 69 -6 0 -42 -64 -80 -142 -123 -258 -136 -282 -193 -357 -65 -85 -127 -141 -155 -141 -32 0 -17 62 53 217 35 76 78 172 96 213 43 95 45 150 8 179 -83 65 -171 -19 -333 -317 -99 -181 -109 -177 -17 7 26 50 60 125 76 166 28 71 29 78 16 109 -51 123 -176 37 -317 -219 -29 -52 -54 -93 -56 -91 -2 1 17 46 41 99 66 141 71 167 47 223 -12 25 -26 44 -33 42 -6 -2 -64 -102 -127 -221 -64 -119 -136 -244 -161 -278 -52 -71 -115 -129 -142 -129 -32 0 -21 49 48 200 162 358 160 350 119 398 -15 18 -30 32 -35 32 -4 0 -45 -71 -90 -157 -102 -192 -160 -290 -217 -365 -46 -61 -104 -103 -128 -94 -33 12 -13 78 90 296 99 212 101 218 76 275 -11 25 -27 45 -35 45 -9 0 -43 -55 -87 -142 -95 -190 -155 -288 -228 -374 -69 -82 -126 -123 -144 -105 -20 20 25 128 210 497 124 247 176 360 175 383 -1 32 -36 101 -52 101 -4 0 -25 -30 -46 -67z m1864 -345 c25 -25 9 -111 -47 -253 -45 -111 -92 -193 -148 -255 -116 -129 -194 -83 -142 85 78 255 267 493 337 423z m-2183 -800 c50 -17 119 -43 154 -59 57 -26 63 -31 50 -44 -60 -60 -281 -81 -372 -36 -32 16 -54 34 -64 56 -14 29 -14 35 2 68 30 64 75 67 230 15z" id="svg_3" stroke="#ffffff" stroke-opacity="1" fill="#ffffff" fill-opacity="1"/>
<path d="M3810 1113 c-133 -88 -232 -229 -271 -382 -25 -98 -15 -148 36 -197 94 -88 241 -60 372 71 61 61 183 236 183 263 0 29 -27 2 -93 -89 -37 -51 -91 -118 -120 -147 -54 -55 -153 -112 -194 -112 -32 0 -80 26 -93 49 -24 46 1 179 43 225 12 14 51 35 87 46 167 55 298 188 259 262 -20 37 -41 47 -99 48 -47 0 -63 -5 -110 -37z m168 -9 c31 -56 -73 -164 -206 -214 -38 -14 -52 -16 -52 -7 0 20 97 142 142 179 75 61 100 70 116 42z" id="svg_4" stroke="#ffffff" stroke-opacity="1" fill="#ffffff" fill-opacity="1"/>
</g></g></svg>